<?xml version="1.0" encoding="UTF-8"?>
<!DOCTYPE svg PUBLIC "-//W3C//DTD SVG 1.1//EN" "http://www.w3.org/Graphics/SVG/1.1/DTD/svg11.dtd">
<!-- Creator: CorelDRAW -->
<svg xmlns="http://www.w3.org/2000/svg" xml:space="preserve" width="215.9mm" height="279.4mm" version="1.1" style="shape-rendering:geometricPrecision; text-rendering:geometricPrecision; image-rendering:optimizeQuality; fill-rule:evenodd; clip-rule:evenodd"
viewBox="0 0 21590 27940"
 xmlns:xlink="http://www.w3.org/1999/xlink"
 xmlns:xodm="http://www.corel.com/coreldraw/odm/2003">
 <defs>
  <style type="text/css">
   <![CDATA[
    .fil0 {fill:white}
    .fil1 {fill:white;fill-rule:nonzero}
   ]]>
  </style>
    <mask id="id0">
  <linearGradient id="id1" gradientUnits="userSpaceOnUse" x1="1570.31" y1="12293.24" x2="51.85" y2="14923.29">
   <stop offset="0" style="stop-opacity:1; stop-color:white"/>
   <stop offset="1" style="stop-opacity:0; stop-color:white"/>
  </linearGradient>
     <rect style="fill:url(#id1)" x="-10.87" y="13558.08" width="1467.04" height="1556.16"/>
    </mask>
 </defs>
 <g id="Camada_x0020_1">
  <metadata id="CorelCorpID_0Corel-Layer"/>
  <g id="_1757940958416">
   <path class="fil0" d="M1445.3 11269.16l0 5401.68c0,399.09 -323.45,722.75 -722.76,722.75 -398.87,-0.21 -722.54,-323.88 -722.54,-722.75l0 -5401.68c-0.22,-399.31 323.67,-722.54 722.76,-722.76 399.31,0 722.54,323.67 722.54,722.76z"/>
   <path class="fil0" d="M1445.3 13568.95l0 3101.89c0,399.09 -323.45,722.75 -722.76,722.75 -398.87,0 -722.54,-323.66 -722.54,-722.75l0 -2044.16c163.03,-459.74 546.04,-1016.86 1445.3,-1057.73z"/>
   <path class="fil1" style="mask:url(#id0)" d="M1445.3 13568.95l0 78.04c0,0 -1045.99,-7.39 -1445.3,1456.38l0 -476.69c163.03,-459.74 546.04,-1016.86 1445.3,-1057.73z"/>
   <path class="fil1" d="M2658.15 15341.87l501.27 0 0 -2699.39 -501.27 0 0 2699.39zm1230.01 0l497.44 0 0 -1827.8 1488.51 1827.8 412.42 0 0 -2699.39 -497.45 0 0 1827.79 -1488.09 -1827.79 -412.83 0 0 2699.39zm2776.34 -2275.07l894.55 0 0 2275.07 501.27 0 0 -2275.07 894.56 0 0 -424.32 -2290.38 0 0 424.32zm2667.93 2275.07l2024.22 0 0 -420.49 -1522.95 0 0 -744.05 1303.56 0 0 -412.83 -1303.56 0 0 -701.53 1468.95 0 0 -420.49 -1970.22 0 0 2699.39zm2583.31 0l1912.41 0 0 -424.32 -1411.13 0 0 -2275.07 -501.28 0 0 2699.39zm2309.94 0l500.84 0 0 -2699.39 -500.84 0 0 2699.39zm3072.68 -539.96c-173.47,100.33 -362.24,138.6 -555.27,138.6 -570.57,0 -975.33,-400.93 -975.33,-948.55 0,-559.09 404.76,-948.12 979.16,-948.12 289.54,0 532.31,96.09 744.47,308.24l315.9 -308.24c-254.25,-289.54 -632.23,-439.63 -1083.33,-439.63 -844.38,0 -1461.3,582.06 -1461.3,1387.75 0,806.12 616.92,1388.17 1453.65,1388.17 381.8,0 775.08,-115.64 1056.54,-343.11l0 -1075.67 -474.49 0 0 840.56zm1133.92 539.96l500.85 0 0 -2699.39 -500.85 0 0 2699.39zm2066.32 38.26c740.64,0 1091.4,-369.89 1091.4,-801.86 0,-991.07 -1600.33,-616.92 -1600.33,-1191.32 0,-204.51 169.64,-366.5 586.31,-366.5 235.12,0 501.27,69.31 744.04,212.16l158.16 -389.45c-235.11,-154.34 -574.4,-238.95 -898.38,-238.95 -740.21,0 -1087.57,369.9 -1087.57,805.7 0,1002.54 1604.15,620.74 1604.15,1203.22 0,200.25 -177.29,350.76 -597.78,350.76 -331.63,0 -674.74,-123.29 -890.73,-297.19l-173.47 389.46c223.64,193.02 644.13,323.97 1064.2,323.97z"/>
  </g>
 </g>
</svg>
